Coordinates
version=1
nRows=10
nColumns=40
inDegrees=yes

Units are S.I. units (second, meters, Newtons, ...)
Angles are in degrees.

endheader
time	pelvis_tilt	pelvis_list	pelvis_rotation	pelvis_tx	pelvis_ty	pelvis_tz	hip_flexion_r	hip_adduction_r	hip_rotation_r	knee_angle_r	knee_angle_r_beta	ankle_angle_r	subtalar_angle_r	mtp_angle_r	hip_flexion_l	hip_adduction_l	hip_rotation_l	knee_angle_l	knee_angle_l_beta	ankle_angle_l	subtalar_angle_l	mtp_angle_l	lumbar_extension	lumbar_bending	lumbar_rotation	arm_flex_r	arm_add_r	arm_rot_r	elbow_flex_r	pro_sup_r	wrist_flex_r	wrist_dev_r	arm_flex_l	arm_add_l	arm_rot_l	elbow_flex_l	pro_sup_l	wrist_flex_l	wrist_dev_l
     43.57000000	     -4.71838752	     -3.71758754	      3.34685859	      1.08587659	      0.91175230	      0.41829475	      1.90549950	     -1.34523634	    -11.84144453	     34.48576085	     34.48576085	     12.51763512	    -10.90357673	    -16.76959334	     30.70912760	     -4.85626283	     -6.70994321	     27.41970386	     27.41970386	      4.93218456	    -16.26111712	      3.61000852	     -8.76288000	      3.68054749	      4.03236126	     32.91020081	    -14.80552722	     -0.90623955	    117.75300878	     43.79836406	      0.00000000	      0.00000000	    -10.38560946	     -6.65436493	      3.86164964	     23.21058835	     45.79589104	      0.00000000	      0.00000000
     43.58142857	     -4.68562144	     -3.41838111	      3.30532289	      1.08586011	      0.91344015	      0.41592158	      3.64771351	     -2.26588755	    -11.89401272	     38.54187583	     38.54187583	     10.31124167	    -13.07177682	    -16.76624870	     29.81693215	     -4.48013416	     -7.00361236	     27.20468926	     27.20468926	      5.66385194	    -15.97742644	      3.14231941	     -8.77049350	      3.33000140	      3.57038971	     30.92742763	    -14.56655294	     -0.19365622	    117.61527841	     43.78483559	      0.00000000	      0.00000000	     -9.12195772	     -6.77296387	      3.71812783	     23.66122398	     45.84547288	      0.00000000	      0.00000000
     43.59285714	     -4.61906807	     -3.09769897	      3.22297338	      1.08570769	      0.91514290	      0.41366236	      5.48371786	     -3.27354057	    -12.01640166	     42.67897706	     42.67897706	      7.91294684	    -15.02043857	    -16.44988012	     28.82868599	     -4.10611172	     -7.38797640	     26.88322132	     26.88322132	      6.36364094	    -15.61796710	      2.66675881	     -8.85968747	      2.96158619	      3.18528128	     28.76858182	    -14.32060273	      0.45444032	    117.36702469	     43.77090803	      0.00000000	      0.00000000	     -7.76256981	     -6.94429947	      3.58839013	     24.15686080	     45.89334400	      0.00000000	      0.00000000
     43.60428571	     -4.57002288	     -2.81395835	      3.15933357	      1.08536905	      0.91674341	      0.41149685	      7.42756028	     -4.25045224	    -12.15252691	     46.76470153	     46.76470153	      5.44408619	    -16.82377464	    -15.59624824	     27.84629567	     -3.76664851	     -7.79098057	     26.48915566	     26.48915566	      6.94342766	    -15.19448799	      2.15389687	     -8.91597878	      2.64293360	      2.88522485	     26.50778809	    -14.20921427	      1.05201383	    116.96097039	     43.76314561	      0.00000000	      0.00000000	     -6.29910555	     -7.11499139	      3.42470327	     24.72890936	     45.94778399	      0.00000000	      0.00000000
     43.61571429	     -4.51437168	     -2.50607903	      3.06955837	      1.08491382	      0.91822932	      0.40936215	      9.42551471	     -5.33436731	    -12.35750251	     50.76602742	     50.76602742	      3.21822328	    -18.02970727	    -14.21904081	     26.84063702	     -3.41267403	     -8.26870787	     26.05984148	     26.05984148	      7.48163137	    -14.73217570	      1.62509773	     -9.00216379	      2.32915537	      2.60454191	     24.16954933	    -14.09950490	      1.61806183	    116.31712888	     43.76226753	      0.00000000	      0.00000000	     -4.76165598	     -7.32975267	      3.24398316	     25.35860068	     46.00512998	      0.00000000	      0.00000000
     43.62714286	     -4.49834178	     -2.37963602	      2.94796923	      1.08425159	      0.91951247	      0.40767316	     11.85828500	     -5.95212499	    -12.04080064	     55.25206870	     55.25206870	      3.94330016	    -17.80697174	     -4.14655241	     25.84866660	     -3.30295072	     -8.80426103	     25.46686622	     25.46686622	      7.36241100	    -14.29312013	     -0.53173588	     -9.05172458	      2.15898595	      2.77821950	     21.51665973	    -14.32052703	      1.48474652	    115.70086925	     43.84797494	      0.00000000	      0.00000000	     -2.99212206	     -7.32278365	      1.92238549	     26.03013666	     46.23652032	      0.00000000	      0.00000000
     43.63857143	     -4.41406802	     -2.08919183	      2.86750374	      1.08351519	      0.92079661	      0.40577558	     13.82668636	     -6.98573453	    -12.15088379	     58.68863883	     58.68863883	      1.99131181	    -18.46941471	     -3.31922385	     24.86139086	     -2.95731222	     -9.20937957	     25.05787552	     25.05787552	      7.84653997	    -13.84967555	     -0.85021957	     -9.21445643	      1.84778959	      2.35986583	     19.25432644	    -14.07619690	      2.08530856	    114.53243502	     43.86085527	      0.00000000	      0.00000000	     -1.40488764	     -7.61546610	      1.76999456	     26.68039860	     46.28600569	      0.00000000	      0.00000000
     43.65000000	     -4.37777732	     -1.82194217	      2.76229401	      1.08271194	      0.92186920	      0.40393716	     15.87431213	     -7.93047942	    -12.08478391	     61.90987775	     61.90987775	      0.68408008	    -18.73076504	     -2.10898750	     23.90549783	     -2.64430684	     -9.66179078	     24.59977571	     24.59977571	      8.32990881	    -13.29222305	     -1.25903629	     -9.27094819	      1.59855825	      2.10486659	     16.93068967	    -14.07173505	      2.53577716	    112.88050295	     43.89409463	      0.00000000	      0.00000000	      0.24243429	     -7.86354609	      1.57129659	     27.45513407	     46.34234279	      0.00000000	      0.00000000
     43.66142857	     -4.39734587	     -1.65558810	      2.58217045	      1.08174708	      0.92285562	      0.40237319	     18.05770201	     -8.56026020	    -11.70033543	     64.86694115	     64.86694115	      0.07621758	    -18.75204173	      0.21898904	     22.99647383	     -2.49043894	    -10.24777551	     24.07466283	     24.07466283	      8.71078125	    -12.52243861	     -1.88421502	     -9.24124177	      1.43471358	      2.10509937	     14.67661520	    -14.34511008	      2.59636096	    110.23351920	     43.97741854	      0.00000000	      0.00000000	      1.85214356	     -8.02900889	      1.20041904	     28.38475913	     46.41934003	      0.00000000	      0.00000000
     43.67285714	     -4.29473775	     -1.69055495	      2.49669240	      1.08070872	      0.92381645	      0.40111082	     20.19459587	     -8.72056361	    -11.17688364	     67.67424665	     67.67424665	      1.11922234	    -18.42345985	      6.55102992	     22.09741323	     -2.57834309	    -10.73166272	     23.74634116	     23.74634116	      8.86335552	    -11.85694312	     -3.42860181	     -9.37321167	      1.46650366	      1.36475439	     13.14561804	    -13.71735651	      2.60395220	    106.88922855	     44.13792869	      0.00000000	      0.00000000	      3.23332035	     -8.24813791	     -0.40597032	     29.51792881	     46.63107350	      0.00000000	      0.00000000
